<svg xmlns="http://www.w3.org/2000/svg" width="80" height="80" viewBox="0 0 80 80"><g transform="translate(1530 -5572)"><circle cx="40" cy="40" r="40" transform="translate(-1530 5572)" fill="#f8d7da" opacity="0.5"/><circle cx="30" cy="30" r="30" transform="translate(-1520 5582)" fill="#f8d7da"/><g transform="translate(-1507.5 5595)"><path d="M4.5,9H29.7" transform="translate(0 -0.4)" fill="none" stroke="#721c24" stroke-linecap="round" stroke-linejoin="round" stroke-width="2.5"/><path d="M27.1,8.6V28.2A2.8,2.8,0,0,1,24.3,31h-14a2.8,2.8,0,0,1-2.8-2.8V8.6m4.2,0V5.8A2.8,2.8,0,0,1,14.5,3h5.6a2.8,2.8,0,0,1,2.8,2.8V8.6" transform="translate(-0.2 0)" fill="none" stroke="#721c24" stroke-linecap="round" stroke-linejoin="round" stroke-width="2.5"/></g></g></svg>