<svg xmlns="http://www.w3.org/2000/svg" width="80" height="80" viewBox="0 0 80 80"><g transform="translate(-741 -286)"><circle cx="40" cy="40" r="40" transform="translate(741 286)" fill="#cce5ff" opacity="0.5"/><circle cx="30" cy="30" r="30" transform="translate(751 296)" fill="#cce5ff"/><g transform="translate(763.508 308)"><path d="M17.993,34.254A14.75,14.75,0,0,1,7.561,9.076a1.25,1.25,0,0,1,1.768,1.767,12.25,12.25,0,1,0,17.327,0,1.25,1.25,0,0,1,1.768-1.767A14.75,14.75,0,0,1,17.993,34.254Z" fill="#1b97ff"/><path d="M18,19.25A1.25,1.25,0,0,1,16.75,18V3a1.25,1.25,0,0,1,2.5,0V18A1.25,1.25,0,0,1,18,19.25Z" fill="#1b97ff"/></g></g></svg>